<svg width="1080" height="1920" viewBox="0 0 1080 1920" fill="none" xmlns="http://www.w3.org/2000/svg">
<g clip-path="url(#clip0_2653_36645)">
<path d="M491.511 527.711C496.404 537.106 492.435 548.727 482.703 553.071C424.745 579.029 231.35 711.425 309.317 1002.61C316.602 1029.82 352.65 1036.44 370.211 1014.39C397.396 980.182 429.583 910.345 437.358 878.468C443.611 852.836 472.862 840.454 495.643 853.759C516.902 866.141 521.741 894.651 505.81 913.441C456.986 970.895 427.789 1073.53 410.173 1166.83C400.604 1217.6 357.706 1255.45 306.055 1258.06C305.185 1258.06 304.26 1258.17 303.391 1258.17C249.02 1260.94 200.087 1225.26 186.332 1172.58C144.195 1011.08 122.066 688.128 466.773 519.62C475.852 515.166 486.835 518.696 491.511 527.657V527.711Z" fill="white" fill-opacity="0.26"/>
<path d="M589.489 527.711C584.596 537.106 588.565 548.727 598.297 553.071C656.256 579.029 849.65 711.425 771.683 1002.61C764.398 1029.82 728.35 1036.44 710.789 1014.39C683.604 980.182 651.417 910.345 643.642 878.468C637.389 852.836 608.138 840.454 585.357 853.759C564.098 866.141 559.259 894.651 575.19 913.441C624.014 970.895 653.211 1073.53 670.827 1166.83C680.396 1217.6 723.294 1255.45 774.946 1258.06C775.815 1258.06 776.74 1258.17 777.61 1258.17C831.98 1260.94 880.913 1225.26 894.668 1172.58C936.805 1011.08 958.934 688.128 614.228 519.62C605.148 515.166 594.165 518.696 589.489 527.657V527.711Z" fill="white" fill-opacity="0.26"/>
</g>
<defs>
<clipPath id="clip0_2653_36645">
<rect width="1920" height="1080" fill="white" transform="translate(1080 4.72083e-05) rotate(90)"/>
</clipPath>
</defs>
</svg>
