<svg width="1080" height="1920" viewBox="0 0 1080 1920" fill="none" xmlns="http://www.w3.org/2000/svg">
<g clip-path="url(#clip0_2653_36629)">
<g filter="url(#filter0_d_2653_36629)">
<path d="M483.158 1682.83H464.906V1673.9H479.198V1672.24H464.906V1668.68H482.726V1677.46H468.47V1679.26H483.158V1682.83ZM475.31 1665.98H462.026V1651.26H475.31V1665.98ZM482.726 1649.46V1656.48H486.83V1660.11H482.726V1667.24H479.198V1649.46H482.726ZM471.746 1662.42V1654.82H465.554V1662.42H471.746ZM508.123 1682.83H489.763V1670.91H508.123V1682.83ZM504.559 1679.23V1674.55H493.327V1679.23H504.559ZM511.327 1668.46H486.451V1664.83H511.327V1668.46ZM498.871 1658.6L497.323 1661.59C495.739 1661.05 494.551 1659.75 493.687 1658.06C492.535 1660.51 490.987 1662.16 488.791 1663.14L487.063 1660.29C490.339 1658.71 491.959 1655.94 491.959 1651.98V1650.21H495.379V1651.94C495.379 1655.54 496.459 1657.77 498.871 1658.6ZM500.203 1662.96L498.547 1660.11C501.283 1658.38 502.507 1655.65 502.507 1652.08V1650.03H505.927V1652.12C505.927 1656.4 507.547 1658.71 510.679 1659.86L509.167 1662.74C507.115 1662.13 505.495 1660.69 504.307 1658.38C503.407 1660.22 501.823 1662.09 500.203 1662.96ZM533.807 1655.68C533.807 1659.75 530.531 1661.88 524.231 1661.88C518.003 1661.88 514.619 1659.75 514.619 1655.68C514.619 1651.62 518.003 1649.49 524.231 1649.49C530.531 1649.49 533.807 1651.62 533.807 1655.68ZM524.231 1653.02C519.947 1653.02 518.183 1653.99 518.183 1655.68C518.183 1657.38 519.947 1658.35 524.231 1658.35C528.443 1658.35 530.243 1657.38 530.243 1655.68C530.243 1653.99 528.443 1653.02 524.231 1653.02ZM536.615 1667.24H511.739V1663.6H536.615V1667.24ZM533.987 1682.83H515.051V1674.12H529.883V1672.57H515.051V1669.04H533.411V1677.64H518.615V1679.3H533.987V1682.83ZM557.516 1683.01H553.952V1671.7H543.332V1668.07H568.208V1671.7H557.516V1683.01ZM546.5 1654.86V1651.26H564.86V1654.21C564.86 1657.77 564.428 1662.52 563.672 1666.38L560.216 1665.62C560.972 1662.49 561.26 1657.88 561.26 1654.89V1654.86H546.5ZM569.953 1669.36C569.953 1664.79 572.617 1661.48 576.613 1661.48C580.717 1661.48 583.273 1664.76 583.273 1669.36C583.273 1673.97 580.717 1677.25 576.613 1677.25C572.617 1677.25 569.953 1673.94 569.953 1669.36ZM590.185 1649.46V1661.84H594.289V1665.51H590.185V1682.83H586.657V1649.46H590.185ZM568.693 1656.4H584.389V1660.08H568.693V1656.4ZM579.745 1669.36C579.745 1667.24 578.917 1665.19 576.613 1665.19C574.345 1665.19 573.481 1667.24 573.481 1669.33C573.481 1671.49 574.345 1673.54 576.613 1673.54C578.917 1673.54 579.745 1671.49 579.745 1669.36ZM572.149 1651.18H580.933V1654.86H572.149V1651.18ZM609.713 1669.33L610.325 1672.82C605.753 1674.37 601.181 1674.8 596.825 1674.8H595.061V1652.98H608.345V1656.66H598.625V1671.13C602.117 1671.09 605.969 1670.52 609.713 1669.33ZM615.473 1649.46V1661.84H619.577V1665.51H615.473V1682.83H611.945V1649.46H615.473Z" fill="white"/>
</g>
<path d="M797.706 117.129C807.295 117.129 814.505 124.958 812.847 133.576L661.589 913.305L812.847 1693.03C814.505 1701.65 807.295 1709.48 797.777 1709.48C791.864 1709.48 786.528 1706.39 784.004 1701.59L611.381 1232.57C573.453 1161.06 507.691 1161.06 469.763 1232.57L297.068 1701.59C294.544 1706.39 289.136 1709.48 283.295 1709.48C273.705 1709.48 266.495 1701.65 268.153 1693.03L419.411 913.303L268.153 133.576C266.495 124.958 273.705 117.129 283.223 117.129C289.136 117.129 294.472 120.221 296.996 125.024L469.62 594.042C507.548 665.556 573.309 665.556 611.237 594.042L783.933 125.024C786.457 120.221 791.865 117.129 797.706 117.129Z" fill="white" fill-opacity="0.26"/>
<path d="M797.706 117.129C807.295 117.129 814.505 124.958 812.847 133.576L661.589 913.305L812.847 1693.03C814.505 1701.65 807.295 1709.48 797.777 1709.48C791.864 1709.48 786.528 1706.39 784.004 1701.59L611.381 1232.57C573.453 1161.06 507.691 1161.06 469.763 1232.57L297.068 1701.59C294.544 1706.39 289.136 1709.48 283.295 1709.48C273.705 1709.48 266.495 1701.65 268.153 1693.03L419.411 913.303L268.153 133.576C266.495 124.958 273.705 117.129 283.223 117.129C289.136 117.129 294.472 120.221 296.996 125.024L469.62 594.042C507.548 665.556 573.309 665.556 611.237 594.042L783.933 125.024C786.457 120.221 791.865 117.129 797.706 117.129Z" fill="white" fill-opacity="0.26"/>
</g>
<defs>
<filter id="filter0_d_2653_36629" x="446.626" y="1634.06" width="188.351" height="64.3522" filterUnits="userSpaceOnUse" color-interpolation-filters="sRGB">
<feFlood flood-opacity="0" result="BackgroundImageFix"/>
<feColorMatrix in="SourceAlpha" type="matrix" values="0 0 0 0 0 0 0 0 0 0 0 0 0 0 0 0 0 0 127 0" result="hardAlpha"/>
<feOffset/>
<feGaussianBlur stdDeviation="7.7"/>
<feComposite in2="hardAlpha" operator="out"/>
<feColorMatrix type="matrix" values="0 0 0 0 0 0 0 0 0 0 0 0 0 0 0 0 0 0 0.6 0"/>
<feBlend mode="normal" in2="BackgroundImageFix" result="effect1_dropShadow_2653_36629"/>
<feBlend mode="normal" in="SourceGraphic" in2="effect1_dropShadow_2653_36629" result="shape"/>
</filter>
<clipPath id="clip0_2653_36629">
<rect width="1920" height="1080" fill="white" transform="translate(1080 4.72083e-05) rotate(90)"/>
</clipPath>
</defs>
</svg>
