<svg width="1080" height="1920" viewBox="0 0 1080 1920" fill="none" xmlns="http://www.w3.org/2000/svg">
<g clip-path="url(#clip0_2653_36656)">
<path d="M514.256 561.205C518.246 570.254 514.256 580.784 505.202 584.874C456.711 606.855 353.029 660.122 307.198 794.822C302.39 808.931 316.252 821.762 329.193 814.298C353.745 800.087 387.709 783.371 399.474 772.176C415.382 756.993 441.468 761.389 451.494 780.968C460.854 799.167 450.624 821.608 431.136 827.691C380.753 843.385 320.702 887.399 272.313 935.145C269.244 938.212 267.147 942.097 266.328 946.34V946.698C264.027 957.995 274.871 967.503 285.766 963.823L286.021 963.72C320.497 951.912 379.678 917.253 399.474 898.339C416.098 882.44 443.821 888.012 452.773 909.84C460.19 927.886 449.55 948.129 430.931 953.957C379.371 970.11 317.94 1015.86 268.784 1064.89C258.144 1075.47 267.658 1093.97 282.339 1090.96C283.566 1090.7 284.794 1090.39 286.021 1089.93C320.497 1078.13 379.678 1043.47 399.474 1024.55C415.33 1009.42 441.315 1013.77 451.443 1033.14C461.571 1052.52 450.266 1074.04 430.369 1080.32C370.42 1099.14 292.262 1148.31 250.676 1214.97C211.751 1277.39 135.383 1270.69 102.237 1205.87C69.5519 1142.28 63.7719 721.465 490.931 551.697C499.985 548.119 510.317 552.259 514.205 561.154L514.256 561.205Z" fill="white" fill-opacity="0.26"/>
<path d="M564.909 555.38C560.92 564.428 564.909 574.959 573.963 579.049C622.454 601.03 726.136 654.296 771.967 788.996C776.776 803.105 762.914 815.936 749.973 808.473C725.42 794.262 691.456 777.546 679.692 766.35C663.784 751.168 637.697 755.564 627.671 775.143C618.311 793.342 628.541 815.783 648.029 821.866C698.413 837.56 758.464 881.574 806.852 929.319C809.921 932.387 812.018 936.272 812.837 940.515V940.872C815.138 952.17 804.295 961.678 793.399 957.998L793.144 957.895C758.668 946.087 699.487 911.428 679.692 892.513C663.068 876.615 635.344 882.187 626.393 904.015C618.976 922.06 629.615 942.304 648.234 948.131C699.794 964.285 761.226 1010.04 810.381 1059.06C821.021 1069.64 811.507 1088.15 796.827 1085.13C795.599 1084.88 794.371 1084.57 793.144 1084.11C758.668 1072.3 699.487 1037.64 679.692 1018.73C663.835 1003.6 637.85 1007.94 627.722 1027.32C617.595 1046.69 628.899 1068.21 648.797 1074.5C708.745 1093.31 786.903 1142.49 828.489 1209.15C867.414 1271.56 943.782 1264.87 976.928 1200.05C1009.61 1136.46 1015.39 715.64 588.234 545.872C579.18 542.294 568.848 546.434 564.961 555.329L564.909 555.38Z" fill="white" fill-opacity="0.26"/>
</g>
<defs>
<clipPath id="clip0_2653_36656">
<rect width="1920" height="1080" fill="white" transform="translate(1080 4.72083e-05) rotate(90)"/>
</clipPath>
</defs>
</svg>
