<svg width="852" height="850" viewBox="0 0 852 850" fill="none" xmlns="http://www.w3.org/2000/svg">
<g filter="url(#filter0_d_2527_35486)">
<path d="M707.852 688.167L709.419 728.03C697.712 745.521 686.004 750.809 674.85 750.809H670.333V598.271H693.656V537.663H670.149V496.173H702.874V639.762H679.459V709.318C688.401 708.912 698.265 701.59 707.852 688.167ZM723.339 460.378V600.305H733.848V641.795H723.339V837.45H714.305V460.378H723.339Z" fill="black"/>
</g>
<g filter="url(#filter1_d_2527_35486)">
<path d="M646.046 681.658L647.613 721.115C635.906 739.012 623.276 744.707 612.306 744.707H607.789V496.173H616.915V703.217C625.673 703.217 636.366 695.895 646.046 681.658ZM662.27 460.378V837.45H653.236V460.378H662.27Z" fill="black"/>
</g>
<g filter="url(#filter2_d_2527_35486)">
<path d="M579.814 688.167L581.382 728.03C569.674 745.521 557.967 750.809 546.812 750.809H542.295V598.271H565.618V537.663H542.111V496.173H574.836V639.762H551.421V709.318C560.363 708.912 570.227 701.59 579.814 688.167ZM597.514 460.378V837.45H588.48V460.378H597.514Z" fill="black"/>
</g>
<g filter="url(#filter3_d_2527_35486)">
<path d="M476.986 484.784H514.228V526.274H500.216V532.375C500.216 585.662 508.328 620.237 516.441 633.253L512.292 669.862C506.393 661.727 500.493 639.355 495.976 603.153C491.92 638.948 485.743 665.795 478.368 681.658L474.128 647.083C484.453 624.304 491.09 587.696 491.09 534.002V526.274H476.986V484.784ZM533.864 833.382H486.388V701.997H495.515V792.299H533.864V833.382ZM532.757 460.378V741.046H523.723V460.378H532.757Z" fill="black"/>
</g>
<g filter="url(#filter4_d_2527_35486)">
<path d="M456.652 689.388H392.952V648.304H456.652V689.388ZM448.447 837.45H401.433V719.081H410.559V796.367H448.447V837.45ZM449.461 544.579C449.461 592.984 440.888 624.712 424.94 624.712C408.992 624.712 400.327 592.984 400.327 544.579C400.327 496.174 408.992 464.853 424.94 464.853C441.072 464.853 449.461 496.174 449.461 544.579ZM424.94 504.716C414.892 504.716 409.453 518.953 409.453 544.579C409.453 569.392 414.892 584.849 424.94 584.849C434.988 584.849 440.335 569.392 440.335 544.579C440.335 518.953 434.988 504.716 424.94 504.716Z" fill="black"/>
</g>
<g filter="url(#filter5_d_2527_35486)">
<path d="M383.691 837.449H336.676V702.81H383.691V837.449ZM374.564 796.773V743.893H345.803V796.773H374.564ZM391.895 675.15H328.195V634.066H391.895V675.15ZM359.999 563.696L356.035 597.457C351.979 591.356 348.937 576.712 346.725 557.594C343.775 585.255 339.811 603.966 334.187 614.948L329.762 582.814C338.151 564.916 342.3 533.595 342.3 488.851V468.92H351.057V488.444C351.057 529.121 353.823 554.34 359.999 563.696ZM363.41 612.915L359.169 580.78C366.176 561.255 369.31 530.341 369.31 490.071V466.886H378.067V490.478C378.067 538.883 382.216 564.916 390.236 577.933L386.364 610.474C381.11 603.559 376.961 587.288 373.919 561.255C371.614 582 367.558 603.152 363.41 612.915Z" fill="black"/>
</g>
<g filter="url(#filter6_d_2527_35486)">
<path d="M319.764 837.45H273.026V736.572H309.624V717.861H273.026V677.591H318.658V776.842H282.152V797.18H319.764V837.45ZM299.668 647.083H265.651V480.716H299.668V647.083ZM318.658 460.378V539.697H329.167V580.781H318.658V661.32H309.624V460.378H318.658ZM290.541 606.814V520.986H274.685V606.814H290.541Z" fill="black"/>
</g>
<g filter="url(#filter7_d_2527_35486)">
<path d="M241.446 460.378V837.45H232.412V460.378H241.446ZM229.369 712.166L230.568 752.029C215.357 763.418 199.133 769.113 183.646 770.333L182.447 729.657C197.934 728.436 213.975 723.149 229.369 712.166ZM187.425 578.34C187.425 523.02 194.892 481.936 205.401 481.936C215.726 481.936 223.47 521.8 223.47 578.34C223.47 634.88 215.726 674.743 205.401 674.743C194.892 674.743 187.425 633.66 187.425 578.34ZM214.435 578.34C214.435 547.833 211.301 523.833 205.401 523.833C199.778 523.833 196.367 548.239 196.367 577.933C196.367 608.441 199.778 632.847 205.401 632.847C211.301 632.847 214.435 608.847 214.435 578.34Z" fill="black"/>
</g>
<g filter="url(#filter8_d_2527_35486)">
<path d="M125.895 531.562V490.885H172.909V527.087C172.909 579.967 170.328 676.37 168.392 721.928L159.543 712.572C161.294 671.896 163.691 580.374 163.691 534.816V531.562H125.895ZM181.483 788.638H117.783V747.554H181.483V788.638Z" fill="black"/>
</g>
<g filter="url(#filter9_d_2527_35486)">
<path d="M813.061 240.089L814.628 279.952C802.92 297.442 791.213 302.73 780.058 302.73H775.541V150.193H798.864V89.5853H775.357V48.0952H808.083V191.683H784.668V261.24C793.61 260.834 803.473 253.512 813.061 240.089ZM828.548 12.2998V152.227H839.057V193.717H828.548V389.372H819.514V12.2998H828.548Z" fill="black"/>
</g>
<g filter="url(#filter10_d_2527_35486)">
<path d="M764.895 389.372H718.158V288.494H754.755V269.782H718.158V229.513H763.789V328.763H727.284V349.102H764.895V389.372ZM744.799 199.005H710.783V32.6381H744.799V199.005ZM763.789 12.2998V91.6191H774.298V132.702H763.789V213.242H754.755V12.2998H763.789ZM735.673 158.735V72.9079H719.817V158.735H735.673Z" fill="black"/>
</g>
<g filter="url(#filter11_d_2527_35486)">
<path d="M630.805 50.129H668.048V91.6191H654.036V113.178C654.036 182.735 660.212 235.614 671.274 274.257L665.927 307.612C659.29 283.612 653.114 247.41 649.426 205.513C645.462 248.224 639.102 287.273 632.188 311.679L626.841 278.325C637.903 239.682 644.817 181.108 644.817 113.178V91.6191H630.805V50.129ZM686.577 12.2998V389.372H677.543V12.2998H686.577Z" fill="black"/>
</g>
<g filter="url(#filter12_d_2527_35486)">
<path d="M566.325 237.241C566.325 185.582 573.147 148.16 583.379 148.16C593.889 148.16 600.434 185.175 600.434 237.241C600.434 289.307 593.889 326.323 583.379 326.323C573.147 326.323 566.325 288.9 566.325 237.241ZM618.133 12.2998V152.227H628.642V193.717H618.133V389.372H609.099V12.2998H618.133ZM563.099 90.8056H603.291V132.296H563.099V90.8056ZM591.4 237.241C591.4 213.242 589.279 190.056 583.379 190.056C577.572 190.056 575.359 213.242 575.359 236.834C575.359 261.24 577.572 284.426 583.379 284.426C589.279 284.426 591.4 261.24 591.4 237.241ZM571.949 31.8246H594.442V73.3147H571.949V31.8246Z" fill="black"/>
</g>
<g filter="url(#filter13_d_2527_35486)">
<path d="M557.064 389.372H510.695V245.783H557.064V389.372ZM548.03 349.102V286.053H519.821V349.102H548.03ZM557.064 12.2998V229.513H548.03V12.2998H557.064ZM540.84 187.616L536.322 223.411C530.423 209.988 524.615 184.362 520.19 142.058C516.226 181.108 510.326 212.022 503.044 231.14L498.25 196.565C508.575 169.311 515.304 123.347 515.304 66.8064V32.6381H524.523V65.1793C524.523 126.601 532.727 168.091 540.84 187.616Z" fill="black"/>
</g>
<g filter="url(#filter14_d_2527_35486)">
<path d="M492.308 12.2998V389.372H483.274V12.2998H492.308ZM480.232 264.088L481.43 303.951C466.219 315.34 449.995 321.035 434.508 322.255L433.309 281.579C448.797 280.358 464.837 275.07 480.232 264.088ZM438.287 130.262C438.287 74.9417 445.754 33.8584 456.264 33.8584C466.588 33.8584 474.332 73.7214 474.332 130.262C474.332 186.802 466.588 226.665 456.264 226.665C445.754 226.665 438.287 185.582 438.287 130.262ZM465.298 130.262C465.298 99.7544 462.163 75.7552 456.264 75.7552C450.64 75.7552 447.229 100.161 447.229 129.855C447.229 160.362 450.64 184.768 456.264 184.768C462.163 184.768 465.298 160.769 465.298 130.262Z" fill="black"/>
</g>
<g filter="url(#filter15_d_2527_35486)">
<path d="M416.202 224.633H352.502V183.55H416.202V224.633ZM409.472 389.373H360.983V295.41H398.963V281.173H360.983V241.717H407.997V334.866H370.109V349.917H409.472V389.373ZM409.103 166.465H361.352V72.9094H398.594V58.6726H361.352V18.8096H407.629V112.772H370.478V126.602H409.103V166.465Z" fill="black"/>
</g>
<g filter="url(#filter16_d_2527_35486)">
<path d="M289.405 50.129H326.648V91.6191H312.635V113.178C312.635 182.735 318.812 235.614 329.874 274.257L324.527 307.612C317.89 283.612 311.714 247.41 308.026 205.513C304.062 248.224 297.702 287.273 290.788 311.679L285.441 278.325C296.503 239.682 303.417 181.108 303.417 113.178V91.6191H289.405V50.129ZM342.964 12.2998V152.227H353.473V193.717H342.964V389.372H333.93V12.2998H342.964Z" fill="black"/>
</g>
<g filter="url(#filter17_d_2527_35486)">
<path d="M269.543 20.4351V152.634H274.521V12.2998H283.462V390.592H274.521V193.717H269.543V371.881H260.693V20.4351H269.543ZM257.098 244.97L258.665 285.24C249.077 295.002 239.951 298.663 231.378 298.663H226.861V52.1629H255.807V93.6529H235.987V257.173C242.348 256.766 249.631 252.698 257.098 244.97Z" fill="black"/>
</g>
<g filter="url(#filter18_d_2527_35486)">
<path d="M218.245 389.372H170.77V288.494H208.105V269.782H170.77V229.513H217.139V328.763H179.896V349.102H218.245V389.372ZM160.629 32.6381H197.872V74.1282H183.86C184.597 124.567 192.157 155.888 200.085 168.905L195.936 205.513C190.036 197.378 184.137 175.006 179.619 138.804C175.563 174.599 169.387 201.446 162.012 217.31L157.772 182.735C167.635 159.956 174.273 126.601 174.734 74.1282H160.629V32.6381ZM196.213 94.0597H208.105V12.2998H217.139V213.242H208.105V135.55H196.213V94.0597Z" fill="black"/>
</g>
<g filter="url(#filter19_d_2527_35486)">
<path d="M136.239 12.2998V389.372H127.205V12.2998H136.239ZM78.9924 90.8056H119.185V132.296H78.9924V90.8056ZM87.8422 31.8246H110.335V73.3147H87.8422V31.8246ZM82.2189 237.241C82.2189 185.582 89.0406 148.16 99.2731 148.16C109.782 148.16 116.327 185.175 116.327 237.241C116.327 289.307 109.782 326.323 99.2731 326.323C89.0406 326.323 82.2189 288.9 82.2189 237.241ZM107.293 237.241C107.293 213.242 105.173 190.056 99.2731 190.056C93.4655 190.056 91.253 213.242 91.253 236.834C91.253 261.24 93.4655 284.426 99.2731 284.426C105.173 284.426 107.293 261.24 107.293 237.241Z" fill="black"/>
</g>
<g filter="url(#filter20_d_2527_35486)">
<path d="M67.7955 389.372H22.1639V245.783H67.7955V389.372ZM15.4343 77.7891V36.7057H48.8053V46.4681C48.8053 134.736 35.8072 201.039 16.3562 235.614L12.3 199.819C25.9434 177.04 36.6369 130.669 39.1259 77.7891H15.4343ZM67.7955 12.2998V99.7544H78.3046V140.838H67.7955V229.513H58.7613V12.2998H67.7955ZM58.7613 349.102V286.053H31.2902V349.102H58.7613Z" fill="black"/>
</g>
<defs>
<filter id="filter0_d_2527_35486" x="657.849" y="448.078" width="88.2998" height="401.672" filterUnits="userSpaceOnUse" color-interpolation-filters="sRGB">
<feFlood flood-opacity="0" result="BackgroundImageFix"/>
<feColorMatrix in="SourceAlpha" type="matrix" values="0 0 0 0 0 0 0 0 0 0 0 0 0 0 0 0 0 0 127 0" result="hardAlpha"/>
<feOffset/>
<feGaussianBlur stdDeviation="6.15"/>
<feComposite in2="hardAlpha" operator="out"/>
<feColorMatrix type="matrix" values="0 0 0 0 1 0 0 0 0 1 0 0 0 0 1 0 0 0 1 0"/>
<feBlend mode="normal" in2="BackgroundImageFix" result="effect1_dropShadow_2527_35486"/>
<feBlend mode="normal" in="SourceGraphic" in2="effect1_dropShadow_2527_35486" result="shape"/>
</filter>
<filter id="filter1_d_2527_35486" x="595.489" y="448.078" width="79.0813" height="401.672" filterUnits="userSpaceOnUse" color-interpolation-filters="sRGB">
<feFlood flood-opacity="0" result="BackgroundImageFix"/>
<feColorMatrix in="SourceAlpha" type="matrix" values="0 0 0 0 0 0 0 0 0 0 0 0 0 0 0 0 0 0 127 0" result="hardAlpha"/>
<feOffset/>
<feGaussianBlur stdDeviation="6.15"/>
<feComposite in2="hardAlpha" operator="out"/>
<feColorMatrix type="matrix" values="0 0 0 0 1 0 0 0 0 1 0 0 0 0 1 0 0 0 1 0"/>
<feBlend mode="normal" in2="BackgroundImageFix" result="effect1_dropShadow_2527_35486"/>
<feBlend mode="normal" in="SourceGraphic" in2="effect1_dropShadow_2527_35486" result="shape"/>
</filter>
<filter id="filter2_d_2527_35486" x="529.811" y="448.078" width="80.0032" height="401.672" filterUnits="userSpaceOnUse" color-interpolation-filters="sRGB">
<feFlood flood-opacity="0" result="BackgroundImageFix"/>
<feColorMatrix in="SourceAlpha" type="matrix" values="0 0 0 0 0 0 0 0 0 0 0 0 0 0 0 0 0 0 127 0" result="hardAlpha"/>
<feOffset/>
<feGaussianBlur stdDeviation="6.15"/>
<feComposite in2="hardAlpha" operator="out"/>
<feColorMatrix type="matrix" values="0 0 0 0 1 0 0 0 0 1 0 0 0 0 1 0 0 0 1 0"/>
<feBlend mode="normal" in2="BackgroundImageFix" result="effect1_dropShadow_2527_35486"/>
<feBlend mode="normal" in="SourceGraphic" in2="effect1_dropShadow_2527_35486" result="shape"/>
</filter>
<filter id="filter3_d_2527_35486" x="461.828" y="448.078" width="84.3358" height="397.604" filterUnits="userSpaceOnUse" color-interpolation-filters="sRGB">
<feFlood flood-opacity="0" result="BackgroundImageFix"/>
<feColorMatrix in="SourceAlpha" type="matrix" values="0 0 0 0 0 0 0 0 0 0 0 0 0 0 0 0 0 0 127 0" result="hardAlpha"/>
<feOffset/>
<feGaussianBlur stdDeviation="6.15"/>
<feComposite in2="hardAlpha" operator="out"/>
<feColorMatrix type="matrix" values="0 0 0 0 1 0 0 0 0 1 0 0 0 0 1 0 0 0 1 0"/>
<feBlend mode="normal" in2="BackgroundImageFix" result="effect1_dropShadow_2527_35486"/>
<feBlend mode="normal" in="SourceGraphic" in2="effect1_dropShadow_2527_35486" result="shape"/>
</filter>
<filter id="filter4_d_2527_35486" x="380.652" y="452.553" width="88.2998" height="397.197" filterUnits="userSpaceOnUse" color-interpolation-filters="sRGB">
<feFlood flood-opacity="0" result="BackgroundImageFix"/>
<feColorMatrix in="SourceAlpha" type="matrix" values="0 0 0 0 0 0 0 0 0 0 0 0 0 0 0 0 0 0 127 0" result="hardAlpha"/>
<feOffset/>
<feGaussianBlur stdDeviation="6.15"/>
<feComposite in2="hardAlpha" operator="out"/>
<feColorMatrix type="matrix" values="0 0 0 0 1 0 0 0 0 1 0 0 0 0 1 0 0 0 1 0"/>
<feBlend mode="normal" in2="BackgroundImageFix" result="effect1_dropShadow_2527_35486"/>
<feBlend mode="normal" in="SourceGraphic" in2="effect1_dropShadow_2527_35486" result="shape"/>
</filter>
<filter id="filter5_d_2527_35486" x="315.895" y="454.586" width="88.3" height="395.163" filterUnits="userSpaceOnUse" color-interpolation-filters="sRGB">
<feFlood flood-opacity="0" result="BackgroundImageFix"/>
<feColorMatrix in="SourceAlpha" type="matrix" values="0 0 0 0 0 0 0 0 0 0 0 0 0 0 0 0 0 0 127 0" result="hardAlpha"/>
<feOffset/>
<feGaussianBlur stdDeviation="6.15"/>
<feComposite in2="hardAlpha" operator="out"/>
<feColorMatrix type="matrix" values="0 0 0 0 1 0 0 0 0 1 0 0 0 0 1 0 0 0 1 0"/>
<feBlend mode="normal" in2="BackgroundImageFix" result="effect1_dropShadow_2527_35486"/>
<feBlend mode="normal" in="SourceGraphic" in2="effect1_dropShadow_2527_35486" result="shape"/>
</filter>
<filter id="filter6_d_2527_35486" x="253.351" y="448.078" width="88.1155" height="401.672" filterUnits="userSpaceOnUse" color-interpolation-filters="sRGB">
<feFlood flood-opacity="0" result="BackgroundImageFix"/>
<feColorMatrix in="SourceAlpha" type="matrix" values="0 0 0 0 0 0 0 0 0 0 0 0 0 0 0 0 0 0 127 0" result="hardAlpha"/>
<feOffset/>
<feGaussianBlur stdDeviation="6.15"/>
<feComposite in2="hardAlpha" operator="out"/>
<feColorMatrix type="matrix" values="0 0 0 0 1 0 0 0 0 1 0 0 0 0 1 0 0 0 1 0"/>
<feBlend mode="normal" in2="BackgroundImageFix" result="effect1_dropShadow_2527_35486"/>
<feBlend mode="normal" in="SourceGraphic" in2="effect1_dropShadow_2527_35486" result="shape"/>
</filter>
<filter id="filter7_d_2527_35486" x="170.147" y="448.078" width="83.5984" height="401.672" filterUnits="userSpaceOnUse" color-interpolation-filters="sRGB">
<feFlood flood-opacity="0" result="BackgroundImageFix"/>
<feColorMatrix in="SourceAlpha" type="matrix" values="0 0 0 0 0 0 0 0 0 0 0 0 0 0 0 0 0 0 127 0" result="hardAlpha"/>
<feOffset/>
<feGaussianBlur stdDeviation="6.15"/>
<feComposite in2="hardAlpha" operator="out"/>
<feColorMatrix type="matrix" values="0 0 0 0 1 0 0 0 0 1 0 0 0 0 1 0 0 0 1 0"/>
<feBlend mode="normal" in2="BackgroundImageFix" result="effect1_dropShadow_2527_35486"/>
<feBlend mode="normal" in="SourceGraphic" in2="effect1_dropShadow_2527_35486" result="shape"/>
</filter>
<filter id="filter8_d_2527_35486" x="105.483" y="478.585" width="88.2998" height="322.352" filterUnits="userSpaceOnUse" color-interpolation-filters="sRGB">
<feFlood flood-opacity="0" result="BackgroundImageFix"/>
<feColorMatrix in="SourceAlpha" type="matrix" values="0 0 0 0 0 0 0 0 0 0 0 0 0 0 0 0 0 0 127 0" result="hardAlpha"/>
<feOffset/>
<feGaussianBlur stdDeviation="6.15"/>
<feComposite in2="hardAlpha" operator="out"/>
<feColorMatrix type="matrix" values="0 0 0 0 1 0 0 0 0 1 0 0 0 0 1 0 0 0 1 0"/>
<feBlend mode="normal" in2="BackgroundImageFix" result="effect1_dropShadow_2527_35486"/>
<feBlend mode="normal" in="SourceGraphic" in2="effect1_dropShadow_2527_35486" result="shape"/>
</filter>
<filter id="filter9_d_2527_35486" x="763.057" y="-0.000195503" width="88.2998" height="401.672" filterUnits="userSpaceOnUse" color-interpolation-filters="sRGB">
<feFlood flood-opacity="0" result="BackgroundImageFix"/>
<feColorMatrix in="SourceAlpha" type="matrix" values="0 0 0 0 0 0 0 0 0 0 0 0 0 0 0 0 0 0 127 0" result="hardAlpha"/>
<feOffset/>
<feGaussianBlur stdDeviation="6.15"/>
<feComposite in2="hardAlpha" operator="out"/>
<feColorMatrix type="matrix" values="0 0 0 0 1 0 0 0 0 1 0 0 0 0 1 0 0 0 1 0"/>
<feBlend mode="normal" in2="BackgroundImageFix" result="effect1_dropShadow_2527_35486"/>
<feBlend mode="normal" in="SourceGraphic" in2="effect1_dropShadow_2527_35486" result="shape"/>
</filter>
<filter id="filter10_d_2527_35486" x="698.483" y="-0.000195503" width="88.1155" height="401.672" filterUnits="userSpaceOnUse" color-interpolation-filters="sRGB">
<feFlood flood-opacity="0" result="BackgroundImageFix"/>
<feColorMatrix in="SourceAlpha" type="matrix" values="0 0 0 0 0 0 0 0 0 0 0 0 0 0 0 0 0 0 127 0" result="hardAlpha"/>
<feOffset/>
<feGaussianBlur stdDeviation="6.15"/>
<feComposite in2="hardAlpha" operator="out"/>
<feColorMatrix type="matrix" values="0 0 0 0 1 0 0 0 0 1 0 0 0 0 1 0 0 0 1 0"/>
<feBlend mode="normal" in2="BackgroundImageFix" result="effect1_dropShadow_2527_35486"/>
<feBlend mode="normal" in="SourceGraphic" in2="effect1_dropShadow_2527_35486" result="shape"/>
</filter>
<filter id="filter11_d_2527_35486" x="614.541" y="-0.000195503" width="84.3358" height="401.672" filterUnits="userSpaceOnUse" color-interpolation-filters="sRGB">
<feFlood flood-opacity="0" result="BackgroundImageFix"/>
<feColorMatrix in="SourceAlpha" type="matrix" values="0 0 0 0 0 0 0 0 0 0 0 0 0 0 0 0 0 0 127 0" result="hardAlpha"/>
<feOffset/>
<feGaussianBlur stdDeviation="6.15"/>
<feComposite in2="hardAlpha" operator="out"/>
<feColorMatrix type="matrix" values="0 0 0 0 1 0 0 0 0 1 0 0 0 0 1 0 0 0 1 0"/>
<feBlend mode="normal" in2="BackgroundImageFix" result="effect1_dropShadow_2527_35486"/>
<feBlend mode="normal" in="SourceGraphic" in2="effect1_dropShadow_2527_35486" result="shape"/>
</filter>
<filter id="filter12_d_2527_35486" x="550.799" y="-0.000195503" width="90.1436" height="401.672" filterUnits="userSpaceOnUse" color-interpolation-filters="sRGB">
<feFlood flood-opacity="0" result="BackgroundImageFix"/>
<feColorMatrix in="SourceAlpha" type="matrix" values="0 0 0 0 0 0 0 0 0 0 0 0 0 0 0 0 0 0 127 0" result="hardAlpha"/>
<feOffset/>
<feGaussianBlur stdDeviation="6.15"/>
<feComposite in2="hardAlpha" operator="out"/>
<feColorMatrix type="matrix" values="0 0 0 0 1 0 0 0 0 1 0 0 0 0 1 0 0 0 1 0"/>
<feBlend mode="normal" in2="BackgroundImageFix" result="effect1_dropShadow_2527_35486"/>
<feBlend mode="normal" in="SourceGraphic" in2="effect1_dropShadow_2527_35486" result="shape"/>
</filter>
<filter id="filter13_d_2527_35486" x="485.95" y="-0.000195503" width="83.4141" height="401.672" filterUnits="userSpaceOnUse" color-interpolation-filters="sRGB">
<feFlood flood-opacity="0" result="BackgroundImageFix"/>
<feColorMatrix in="SourceAlpha" type="matrix" values="0 0 0 0 0 0 0 0 0 0 0 0 0 0 0 0 0 0 127 0" result="hardAlpha"/>
<feOffset/>
<feGaussianBlur stdDeviation="6.15"/>
<feComposite in2="hardAlpha" operator="out"/>
<feColorMatrix type="matrix" values="0 0 0 0 1 0 0 0 0 1 0 0 0 0 1 0 0 0 1 0"/>
<feBlend mode="normal" in2="BackgroundImageFix" result="effect1_dropShadow_2527_35486"/>
<feBlend mode="normal" in="SourceGraphic" in2="effect1_dropShadow_2527_35486" result="shape"/>
</filter>
<filter id="filter14_d_2527_35486" x="421.009" y="-0.000195503" width="83.5984" height="401.672" filterUnits="userSpaceOnUse" color-interpolation-filters="sRGB">
<feFlood flood-opacity="0" result="BackgroundImageFix"/>
<feColorMatrix in="SourceAlpha" type="matrix" values="0 0 0 0 0 0 0 0 0 0 0 0 0 0 0 0 0 0 127 0" result="hardAlpha"/>
<feOffset/>
<feGaussianBlur stdDeviation="6.15"/>
<feComposite in2="hardAlpha" operator="out"/>
<feColorMatrix type="matrix" values="0 0 0 0 1 0 0 0 0 1 0 0 0 0 1 0 0 0 1 0"/>
<feBlend mode="normal" in2="BackgroundImageFix" result="effect1_dropShadow_2527_35486"/>
<feBlend mode="normal" in="SourceGraphic" in2="effect1_dropShadow_2527_35486" result="shape"/>
</filter>
<filter id="filter15_d_2527_35486" x="340.202" y="6.50957" width="88.2998" height="395.163" filterUnits="userSpaceOnUse" color-interpolation-filters="sRGB">
<feFlood flood-opacity="0" result="BackgroundImageFix"/>
<feColorMatrix in="SourceAlpha" type="matrix" values="0 0 0 0 0 0 0 0 0 0 0 0 0 0 0 0 0 0 127 0" result="hardAlpha"/>
<feOffset/>
<feGaussianBlur stdDeviation="6.15"/>
<feComposite in2="hardAlpha" operator="out"/>
<feColorMatrix type="matrix" values="0 0 0 0 1 0 0 0 0 1 0 0 0 0 1 0 0 0 1 0"/>
<feBlend mode="normal" in2="BackgroundImageFix" result="effect1_dropShadow_2527_35486"/>
<feBlend mode="normal" in="SourceGraphic" in2="effect1_dropShadow_2527_35486" result="shape"/>
</filter>
<filter id="filter16_d_2527_35486" x="273.141" y="-0.000195503" width="92.6326" height="401.672" filterUnits="userSpaceOnUse" color-interpolation-filters="sRGB">
<feFlood flood-opacity="0" result="BackgroundImageFix"/>
<feColorMatrix in="SourceAlpha" type="matrix" values="0 0 0 0 0 0 0 0 0 0 0 0 0 0 0 0 0 0 127 0" result="hardAlpha"/>
<feOffset/>
<feGaussianBlur stdDeviation="6.15"/>
<feComposite in2="hardAlpha" operator="out"/>
<feColorMatrix type="matrix" values="0 0 0 0 1 0 0 0 0 1 0 0 0 0 1 0 0 0 1 0"/>
<feBlend mode="normal" in2="BackgroundImageFix" result="effect1_dropShadow_2527_35486"/>
<feBlend mode="normal" in="SourceGraphic" in2="effect1_dropShadow_2527_35486" result="shape"/>
</filter>
<filter id="filter17_d_2527_35486" x="214.561" y="-0.000195503" width="81.2017" height="402.892" filterUnits="userSpaceOnUse" color-interpolation-filters="sRGB">
<feFlood flood-opacity="0" result="BackgroundImageFix"/>
<feColorMatrix in="SourceAlpha" type="matrix" values="0 0 0 0 0 0 0 0 0 0 0 0 0 0 0 0 0 0 127 0" result="hardAlpha"/>
<feOffset/>
<feGaussianBlur stdDeviation="6.15"/>
<feComposite in2="hardAlpha" operator="out"/>
<feColorMatrix type="matrix" values="0 0 0 0 1 0 0 0 0 1 0 0 0 0 1 0 0 0 1 0"/>
<feBlend mode="normal" in2="BackgroundImageFix" result="effect1_dropShadow_2527_35486"/>
<feBlend mode="normal" in="SourceGraphic" in2="effect1_dropShadow_2527_35486" result="shape"/>
</filter>
<filter id="filter18_d_2527_35486" x="145.472" y="-0.000195503" width="85.0734" height="401.672" filterUnits="userSpaceOnUse" color-interpolation-filters="sRGB">
<feFlood flood-opacity="0" result="BackgroundImageFix"/>
<feColorMatrix in="SourceAlpha" type="matrix" values="0 0 0 0 0 0 0 0 0 0 0 0 0 0 0 0 0 0 127 0" result="hardAlpha"/>
<feOffset/>
<feGaussianBlur stdDeviation="6.15"/>
<feComposite in2="hardAlpha" operator="out"/>
<feColorMatrix type="matrix" values="0 0 0 0 1 0 0 0 0 1 0 0 0 0 1 0 0 0 1 0"/>
<feBlend mode="normal" in2="BackgroundImageFix" result="effect1_dropShadow_2527_35486"/>
<feBlend mode="normal" in="SourceGraphic" in2="effect1_dropShadow_2527_35486" result="shape"/>
</filter>
<filter id="filter19_d_2527_35486" x="66.6924" y="-0.000195503" width="81.8469" height="401.672" filterUnits="userSpaceOnUse" color-interpolation-filters="sRGB">
<feFlood flood-opacity="0" result="BackgroundImageFix"/>
<feColorMatrix in="SourceAlpha" type="matrix" values="0 0 0 0 0 0 0 0 0 0 0 0 0 0 0 0 0 0 127 0" result="hardAlpha"/>
<feOffset/>
<feGaussianBlur stdDeviation="6.15"/>
<feComposite in2="hardAlpha" operator="out"/>
<feColorMatrix type="matrix" values="0 0 0 0 1 0 0 0 0 1 0 0 0 0 1 0 0 0 1 0"/>
<feBlend mode="normal" in2="BackgroundImageFix" result="effect1_dropShadow_2527_35486"/>
<feBlend mode="normal" in="SourceGraphic" in2="effect1_dropShadow_2527_35486" result="shape"/>
</filter>
<filter id="filter20_d_2527_35486" x="4.86374e-05" y="-0.000195503" width="90.6045" height="401.672" filterUnits="userSpaceOnUse" color-interpolation-filters="sRGB">
<feFlood flood-opacity="0" result="BackgroundImageFix"/>
<feColorMatrix in="SourceAlpha" type="matrix" values="0 0 0 0 0 0 0 0 0 0 0 0 0 0 0 0 0 0 127 0" result="hardAlpha"/>
<feOffset/>
<feGaussianBlur stdDeviation="6.15"/>
<feComposite in2="hardAlpha" operator="out"/>
<feColorMatrix type="matrix" values="0 0 0 0 1 0 0 0 0 1 0 0 0 0 1 0 0 0 1 0"/>
<feBlend mode="normal" in2="BackgroundImageFix" result="effect1_dropShadow_2527_35486"/>
<feBlend mode="normal" in="SourceGraphic" in2="effect1_dropShadow_2527_35486" result="shape"/>
</filter>
</defs>
</svg>
